<?xml version="1.0" encoding="UTF-8"?>
<svg id="Layer_2" data-name="Layer 2" xmlns="http://www.w3.org/2000/svg" viewBox="0 0 182.52 24.44">
  <defs>
    <style>
      .cls-1 {
        fill: none;
        stroke: #000;
        stroke-miterlimit: 10;
        stroke-width: 1px;
      }
    </style>
  </defs>
  <g id="Layer_1-2" data-name="Layer 1">
    <g>
      <g>
        <rect x="5.38" y="13.68" width="3.9" height="3.9"/>
        <rect y="20.54" width="3.9" height="3.9"/>
        <rect x="33.92" y="20.54" width="3.9" height="3.9"/>
        <rect x="11.31" y="7.29" width="3.9" height="3.9"/>
        <rect class="cls-1" x="44.56" y="7.05" width="3.9" height="3.9"/>
        <rect class="cls-1" x="39.17" y="13.91" width="3.9" height="3.9"/>
        <rect class="cls-1" x="50.48" y=".66" width="3.9" height="3.9"/>
        <rect x="28.6" y="13.68" width="3.9" height="3.9" transform="translate(61.11 31.26) rotate(180)"/>
        <rect x="22.68" y="7.29" width="3.9" height="3.9" transform="translate(49.27 18.47) rotate(180)"/>
        <rect x="17.6" y=".99" width="3.9" height="3.9"/>
        <rect x="17.6" y="16.95" width="3.9" height="3.9"/>
      </g>
      <g>
        <path d="M61.97,9.76c1.01-.89,2.14-1.56,3.37-2,1.23-.44,2.56-.65,3.97-.65,1.01,0,1.92,.16,2.74,.49,.81,.33,1.5,.79,2.07,1.37s1,1.28,1.3,2.09,.45,1.69,.45,2.65v10.47h-2.29c-.47,0-.83-.06-1.07-.19-.24-.13-.44-.4-.61-.81l-.36-.92c-.42,.36-.82,.67-1.21,.94s-.79,.5-1.2,.69c-.42,.19-.86,.33-1.33,.42s-.99,.14-1.56,.14c-.77,0-1.46-.1-2.08-.3-.62-.2-1.16-.49-1.59-.88s-.77-.87-1.01-1.45c-.24-.58-.36-1.24-.36-2,0-.6,.15-1.21,.45-1.83,.3-.62,.82-1.18,1.57-1.7s1.75-.94,3-1.28,2.85-.54,4.77-.58v-.71c0-.98-.2-1.69-.61-2.12-.4-.44-.98-.65-1.72-.65-.59,0-1.08,.06-1.45,.19-.38,.13-.71,.28-1.01,.44s-.58,.31-.86,.44c-.28,.13-.61,.19-1,.19-.35,0-.64-.09-.87-.26-.24-.17-.43-.38-.58-.61l-.91-1.57Zm9.01,7.61c-1,.04-1.83,.13-2.47,.26-.65,.13-1.16,.29-1.53,.48-.38,.19-.64,.42-.78,.66-.15,.25-.22,.52-.22,.81,0,.57,.16,.97,.47,1.2,.31,.23,.77,.35,1.37,.35,.65,0,1.21-.11,1.7-.34s.97-.59,1.47-1.1v-2.33Z"/>
        <path d="M84.07,0V24.18h-5.01V0h5.01Z"/>
        <path d="M92.47,9.21c.65-.61,1.35-1.11,2.12-1.48,.77-.37,1.63-.56,2.58-.56s1.81,.19,2.58,.58c.78,.39,1.44,.94,1.99,1.66,.55,.72,.97,1.58,1.27,2.59,.3,1.01,.44,2.14,.44,3.39,0,1.36-.17,2.59-.52,3.7s-.83,2.06-1.46,2.85c-.63,.79-1.38,1.41-2.25,1.84-.87,.44-1.84,.65-2.89,.65-.51,0-.96-.05-1.36-.15-.4-.1-.76-.23-1.1-.41s-.64-.39-.91-.64c-.27-.25-.54-.52-.8-.81l-.18,.84c-.09,.34-.23,.58-.42,.71-.19,.13-.45,.19-.78,.19h-3.33V0h5.01V9.21Zm0,10.42c.38,.41,.79,.7,1.23,.87,.44,.17,.89,.26,1.34,.26s.91-.09,1.31-.27,.74-.47,1.03-.87c.29-.4,.51-.94,.67-1.6,.16-.66,.24-1.48,.24-2.45,0-.84-.06-1.55-.19-2.14-.12-.59-.31-1.07-.55-1.44-.24-.37-.54-.64-.9-.81-.36-.17-.77-.25-1.24-.25-.61,0-1.15,.13-1.6,.4-.45,.27-.9,.66-1.34,1.18v7.11Z"/>
        <path d="M105.66,9.76c1.01-.89,2.13-1.56,3.37-2s2.55-.65,3.97-.65c1.01,0,1.92,.16,2.74,.49,.81,.33,1.5,.79,2.07,1.37s1,1.28,1.3,2.09c.3,.81,.45,1.69,.45,2.65v10.47h-2.29c-.47,0-.83-.06-1.07-.19-.24-.13-.44-.4-.61-.81l-.36-.92c-.42,.36-.82,.67-1.21,.94-.39,.27-.79,.5-1.2,.69-.42,.19-.86,.33-1.32,.42-.47,.09-.99,.14-1.56,.14-.76,0-1.46-.1-2.08-.3s-1.16-.49-1.59-.88c-.44-.39-.77-.87-1.01-1.45-.24-.58-.36-1.24-.36-2,0-.6,.15-1.21,.45-1.83s.82-1.18,1.57-1.7,1.74-.94,3-1.28c1.26-.34,2.85-.54,4.77-.58v-.71c0-.98-.2-1.69-.61-2.12-.4-.44-.98-.65-1.72-.65-.59,0-1.08,.06-1.45,.19-.38,.13-.71,.28-1.01,.44-.3,.16-.58,.31-.86,.44-.28,.13-.61,.19-1,.19-.34,0-.64-.09-.87-.26-.24-.17-.43-.38-.58-.61l-.9-1.57Zm9.01,7.61c-1,.04-1.83,.13-2.47,.26-.65,.13-1.16,.29-1.54,.48-.38,.19-.64,.42-.78,.66-.15,.25-.22,.52-.22,.81,0,.57,.16,.97,.47,1.2s.77,.35,1.37,.35c.65,0,1.21-.11,1.7-.34,.49-.23,.97-.59,1.47-1.1v-2.33Z"/>
        <path d="M125.17,10.92c.74-.93,1.6-1.67,2.58-2.23,.97-.56,2.06-.84,3.26-.84,.88,0,1.66,.14,2.33,.42,.67,.28,1.23,.68,1.67,1.21s.78,1.16,1,1.91,.34,1.58,.34,2.52v10.27h-1.55V13.91c0-1.51-.35-2.69-1.04-3.55-.69-.86-1.74-1.29-3.15-1.29-1.04,0-2.02,.27-2.93,.8s-1.72,1.27-2.43,2.22v12.08h-1.55V8.11h.86c.27,0,.42,.13,.47,.4l.14,2.41Z"/>
        <path d="M142.02,15.51v.31c0,1.21,.14,2.27,.42,3.18,.28,.92,.68,1.68,1.2,2.3,.52,.62,1.14,1.08,1.87,1.4s1.55,.47,2.46,.47c.81,0,1.51-.09,2.1-.27,.59-.18,1.09-.38,1.49-.6,.4-.22,.72-.42,.96-.6,.24-.18,.41-.27,.52-.27,.14,0,.25,.05,.32,.16l.42,.52c-.26,.32-.6,.62-1.03,.9-.43,.28-.9,.52-1.42,.72-.52,.2-1.08,.36-1.68,.48s-1.2,.18-1.8,.18c-1.1,0-2.1-.19-3-.57-.91-.38-1.68-.94-2.33-1.67-.65-.73-1.14-1.63-1.49-2.69-.35-1.06-.53-2.28-.53-3.64,0-1.15,.16-2.22,.49-3.19,.33-.97,.8-1.82,1.42-2.52,.62-.71,1.38-1.26,2.28-1.66s1.92-.6,3.06-.6c.91,0,1.75,.16,2.52,.47s1.45,.77,2.02,1.37c.57,.6,1.02,1.33,1.35,2.21,.33,.87,.49,1.87,.49,3,0,.24-.03,.4-.1,.48-.06,.09-.17,.13-.32,.13h-11.7Zm10.73-.99c0-.86-.12-1.63-.36-2.32-.24-.68-.58-1.26-1.03-1.74s-.97-.84-1.58-1.09c-.61-.25-1.28-.38-2.01-.38-.83,0-1.57,.13-2.23,.39-.66,.26-1.23,.63-1.7,1.11-.48,.48-.86,1.07-1.16,1.75s-.49,1.44-.58,2.28h10.65Z"/>
        <path d="M159.79,11.99c.25-.66,.53-1.24,.85-1.75s.68-.95,1.1-1.3c.41-.35,.88-.63,1.39-.82,.51-.19,1.08-.28,1.7-.28,.33,0,.66,.03,.99,.09,.32,.06,.61,.16,.86,.31l-.13,1.07c-.05,.17-.16,.26-.31,.26-.13,0-.33-.04-.59-.11s-.61-.11-1.04-.11c-.62,0-1.18,.09-1.66,.28-.48,.19-.91,.47-1.29,.85-.38,.38-.72,.84-1,1.4-.29,.55-.55,1.19-.78,1.91v10.4h-1.55V8.11h.82c.18,0,.31,.04,.39,.11,.08,.08,.12,.2,.15,.39l.11,3.38Z"/>
        <path d="M175.2,7.85c1.15,0,2.18,.2,3.09,.59s1.68,.95,2.3,1.67c.62,.72,1.1,1.59,1.43,2.61,.33,1.02,.49,2.16,.49,3.42s-.16,2.4-.49,3.41c-.33,1.01-.8,1.88-1.43,2.6-.62,.72-1.39,1.28-2.3,1.66-.91,.39-1.94,.58-3.09,.58s-2.18-.19-3.09-.58c-.91-.39-1.68-.94-2.31-1.66-.63-.72-1.11-1.59-1.44-2.6-.33-1.01-.49-2.15-.49-3.41s.16-2.4,.49-3.42c.33-1.02,.81-1.89,1.44-2.61,.63-.72,1.4-1.28,2.31-1.67s1.94-.59,3.09-.59Zm0,15.33c.96,0,1.8-.16,2.51-.49,.72-.33,1.31-.8,1.79-1.41,.48-.61,.84-1.35,1.07-2.22,.24-.87,.36-1.84,.36-2.92s-.12-2.04-.36-2.91c-.24-.87-.6-1.62-1.07-2.24-.48-.62-1.08-1.1-1.79-1.43-.72-.33-1.55-.5-2.51-.5s-1.8,.17-2.51,.5c-.72,.33-1.31,.81-1.79,1.43s-.84,1.37-1.08,2.24-.36,1.84-.36,2.91,.12,2.05,.36,2.92,.6,1.61,1.08,2.22c.48,.61,1.08,1.08,1.79,1.41,.72,.33,1.55,.49,2.51,.49Z"/>
      </g>
    </g>
  </g>
</svg>